<?xml version="1.0" standalone="no"?>
<!DOCTYPE svg PUBLIC "-//W3C//DTD SVG 20010904//EN"
 "http://www.w3.org/TR/2001/REC-SVG-20010904/DTD/svg10.dtd">
<svg version="1.0" xmlns="http://www.w3.org/2000/svg"
 width="331.000000pt" height="331.000000pt" viewBox="0 0 331.000000 331.000000"
 preserveAspectRatio="xMidYMid meet">
<metadata>
Created by potrace 1.15, written by Peter Selinger 2001-2017
</metadata>
<g transform="translate(0.000000,331.000000) scale(0.100000,-0.100000)"
fill="#000000" stroke="none">
<path d="M2394 3275 c-36 -36 -64 -103 -64 -156 l0 -46 -102 -6 c-57 -3 -127
-13 -155 -21 l-53 -14 -34 46 c-83 112 -151 155 -247 154 -129 0 -164 -56
-175 -272 -7 -146 -24 -238 -65 -358 -34 -95 -132 -290 -155 -309 -9 -6 -15
-13 -14 -15 4 -7 -24 -58 -32 -58 -4 0 -8 -6 -8 -12 0 -27 -94 -131 -153 -169
-77 -50 -185 -102 -257 -123 -30 -9 -144 -32 -253 -51 -210 -37 -276 -60 -316
-111 -34 -43 -21 -133 28 -203 27 -38 215 -133 328 -167 87 -26 93 -29 93 -54
0 -16 -11 -36 -26 -51 -62 -58 -89 -175 -73 -319 15 -133 59 -232 140 -310 57
-55 103 -66 168 -41 53 20 147 83 154 104 2 8 29 0 83 -26 44 -20 84 -37 89
-37 6 0 -27 18 -72 40 -46 21 -83 44 -83 50 0 21 28 21 95 -1 58 -18 82 -21
159 -16 50 4 101 9 112 12 18 6 32 -7 84 -74 67 -87 151 -152 223 -173 23 -7
79 -12 124 -13 101 0 127 16 161 101 21 51 24 72 20 151 l-4 92 61 21 c135 49
243 127 320 231 l42 57 18 -34 c19 -35 84 -74 123 -74 40 0 86 27 144 83 67
66 83 109 73 201 -7 66 -56 307 -79 394 -11 40 -12 54 -3 56 7 2 50 13 97 25
177 44 285 121 351 250 47 91 50 180 13 316 -15 55 -27 112 -28 127 -1 14 -3
25 -5 22 -2 -2 -18 31 -35 74 -75 183 -326 484 -500 599 -76 50 -245 133 -271
133 -9 0 -27 -11 -41 -25z m-302 -1173 c146 -83 254 -131 368 -162 70 -19 101
-22 175 -17 153 10 351 75 477 158 57 37 57 37 47 11 -24 -64 -84 -104 -242
-162 -257 -93 -489 -93 -687 2 -67 32 -102 57 -162 118 -73 72 -92 100 -68
100 5 0 46 -21 92 -48z m66 -271 c150 -75 302 -106 445 -91 40 5 73 7 74 6 2
-2 -9 -48 -30 -128 -32 -118 -138 -298 -246 -417 l-49 -55 10 40 c17 60 3 109
-42 153 -34 33 -37 39 -24 52 19 19 53 110 47 127 -8 22 -22 13 -49 -35 -40
-69 -54 -83 -86 -83 -15 0 -28 2 -28 5 0 2 16 33 35 68 37 67 45 107 21 107
-18 0 -44 -32 -76 -94 -22 -41 -28 -46 -55 -44 -45 4 -42 30 9 99 44 58 57 89
37 89 -12 0 -73 -69 -106 -119 -34 -51 -30 -81 13 -103 19 -9 36 -18 38 -21 3
-3 -20 -55 -52 -117 -44 -89 -53 -114 -43 -121 10 -6 21 3 38 33 l25 41 9 -29
c25 -77 88 -120 163 -111 24 2 44 3 44 1 0 -1 -44 -32 -97 -68 -98 -64 -287
-166 -310 -166 -25 0 -13 -16 21 -28 45 -17 86 -50 86 -69 0 -9 -3 -14 -6 -10
-9 8 -103 -21 -153 -49 -47 -26 -45 -26 -112 23 -44 33 -46 36 -42 77 l5 43
-104 7 c-154 11 -258 32 -407 82 -74 24 -136 42 -139 40 -2 -3 3 -15 12 -28
17 -25 21 -94 6 -118 -5 -8 -11 -12 -13 -10 -2 3 -20 28 -40 56 -42 58 -97
104 -125 104 -19 0 -35 -23 -48 -70 l-7 -25 -9 25 c-16 42 -22 194 -9 218 15
29 42 28 71 -3 13 -14 27 -25 32 -25 4 0 8 62 9 138 0 75 3 130 6 122 44 -129
137 -235 265 -300 l86 -44 49 33 c26 19 65 50 85 69 33 31 36 38 24 51 -17 20
-51 87 -69 138 -27 74 -28 78 -11 48 50 -88 95 -126 166 -139 32 -6 41 -2 73
25 19 17 37 30 38 28 1 -2 9 -17 19 -34 20 -38 83 -75 126 -75 143 -1 205 189
90 272 -40 28 -107 35 -147 15 -17 -9 -31 -14 -31 -11 0 2 28 52 61 112 34 59
62 112 64 117 1 6 16 39 33 74 17 35 40 105 52 155 11 50 23 97 25 103 3 8 37
-13 90 -53 48 -35 121 -82 163 -103z"/>
<path d="M824 3106 c-55 -13 -192 -75 -252 -114 -24 -16 -23 -16 36 -28 78
-16 104 -34 159 -111 36 -51 58 -70 106 -95 133 -67 213 -152 316 -333 28 -49
54 -96 59 -104 6 -10 19 5 49 55 65 112 78 155 78 269 0 86 -4 108 -26 159
-58 130 -179 252 -290 292 -62 22 -163 26 -235 10z"/>
<path d="M435 2734 c-11 -2 -45 -9 -75 -15 -186 -37 -314 -188 -354 -416 l-5
-32 63 34 c96 53 159 43 232 -37 l36 -40 26 25 c42 39 73 50 133 50 70 0 147
-35 203 -92 l39 -40 38 30 c51 40 100 59 154 59 60 0 104 -19 160 -71 l47 -43
-7 39 c-53 314 -204 491 -459 540 -72 14 -184 18 -231 9z"/>
<path d="M1825 264 c-16 -2 -73 -9 -125 -15 -192 -22 -323 -70 -307 -112 17
-45 251 -105 420 -108 31 0 37 -2 22 -8 -11 -4 27 -6 85 -5 58 2 204 6 325 8
206 5 372 21 468 47 59 16 125 48 131 65 15 39 -92 82 -274 110 -100 15 -665
29 -745 18z"/>
</g>
</svg>
