<?xml version="1.0" standalone="no"?>
<!DOCTYPE svg PUBLIC "-//W3C//DTD SVG 20010904//EN"
 "http://www.w3.org/TR/2001/REC-SVG-20010904/DTD/svg10.dtd">
<svg version="1.0" xmlns="http://www.w3.org/2000/svg"
 width="331.000000pt" height="331.000000pt" viewBox="0 0 331.000000 331.000000"
 preserveAspectRatio="xMidYMid meet">
<metadata>
Created by potrace 1.11, written by Peter Selinger 2001-2013
</metadata>
<g transform="translate(0.000000,331.000000) scale(0.100000,-0.100000)"
fill="#000000" stroke="none">
<path d="M2403 3273 c-34 -30 -66 -104 -68 -157 l-1 -48 -80 -3 c-43 -2 -92
-6 -109 -9 -16 -4 -39 -9 -50 -11 -11 -2 -32 -7 -48 -10 -28 -6 -49 10 -87 65
-20 30 -70 81 -70 73 0 -3 -11 3 -23 16 -29 26 -55 34 -127 37 -76 3 -111 -17
-138 -76 -24 -52 -29 -84 -37 -235 -7 -153 -30 -256 -83 -375 -8 -19 -15 -36
-14 -38 4 -5 -52 -107 -62 -114 -6 -4 -7 -8 -3 -8 5 0 -1 -13 -12 -29 -12 -16
-21 -34 -21 -40 0 -6 -4 -11 -10 -11 -5 0 -10 -7 -10 -15 0 -8 -4 -15 -10 -15
-5 0 -9 -3 -8 -7 3 -9 -52 -95 -67 -105 -5 -4 -10 -11 -10 -16 0 -11 -79 -92
-89 -92 -4 0 -16 -9 -28 -20 -12 -10 -24 -17 -28 -15 -4 3 -15 -4 -25 -15 -10
-11 -26 -20 -37 -20 -10 0 -18 -4 -18 -9 0 -11 -86 -48 -128 -56 -17 -3 -42
-9 -56 -15 -15 -5 -26 -8 -26 -5 0 2 -15 -1 -32 -6 -30 -8 -121 -25 -188 -35
-55 -7 -117 -20 -185 -37 -27 -7 -95 -54 -105 -72 -19 -35 -18 -78 4 -130 25
-63 60 -96 136 -131 33 -15 60 -31 60 -36 0 -5 5 -6 10 -3 6 3 10 1 10 -4 0
-6 3 -10 7 -9 7 1 33 -8 83 -29 8 -3 17 -6 20 -5 3 0 30 -7 60 -17 50 -16 55
-21 58 -50 3 -24 -3 -39 -21 -57 -24 -23 -56 -80 -65 -114 -9 -33 -10 -198 -1
-240 25 -117 61 -191 124 -254 63 -63 120 -80 174 -51 17 8 33 15 36 15 22 -2
147 119 138 134 -4 5 3 6 18 2 13 -4 31 -9 39 -11 8 -2 31 -9 50 -15 49 -16
138 -20 201 -8 84 16 89 15 107 -16 41 -72 134 -164 193 -193 77 -36 92 -40
179 -41 74 0 89 3 120 24 19 13 31 24 27 24 -4 0 0 14 9 31 25 49 29 77 26
176 -2 87 -1 93 17 93 11 0 23 4 26 10 3 5 17 10 31 10 13 0 24 4 24 9 0 5 12
12 27 16 15 3 39 15 54 26 15 10 31 19 36 19 7 0 23 13 94 76 34 30 69 73 69
84 0 6 7 13 15 16 8 4 13 10 10 14 -3 4 2 11 11 14 9 4 18 5 18 4 1 -2 12 -19
25 -39 50 -75 150 -82 211 -13 16 19 30 32 30 28 0 -4 13 6 28 23 25 26 66
115 57 125 -1 2 -5 32 -9 68 -6 60 -9 83 -20 135 -2 11 -12 55 -21 98 -9 44
-20 89 -25 102 -5 13 -11 41 -15 62 l-5 40 92 23 c94 22 168 52 201 79 9 8 17
11 17 7 0 -6 16 7 75 61 11 10 29 35 40 56 11 20 23 37 28 37 4 0 5 5 2 10 -3
6 -2 10 2 10 5 0 17 28 27 61 22 75 18 126 -20 264 -9 33 -17 65 -19 70 -1 6
-5 17 -8 25 -3 8 -13 37 -21 63 -28 84 -94 203 -151 270 -6 7 -17 21 -25 33
-33 47 -109 132 -180 201 -99 96 -110 106 -143 122 -15 8 -27 18 -27 23 0 4
-5 8 -11 8 -6 0 -29 13 -52 28 -23 16 -64 37 -92 47 -27 10 -54 22 -59 27 -16
14 -52 9 -73 -9z"/>
<path d="M845 3103 c-33 -8 -64 -16 -70 -17 -27 -5 -204 -100 -200 -106 3 -5
28 -11 55 -15 41 -6 59 -15 95 -50 25 -23 45 -48 45 -54 0 -6 3 -11 8 -11 4 0
13 -12 19 -28 9 -20 32 -36 78 -57 36 -17 65 -33 65 -37 0 -5 4 -8 10 -8 11 0
35 -19 93 -72 22 -21 37 -38 34 -38 -4 0 6 -14 23 -31 16 -18 30 -38 30 -45 0
-8 5 -14 10 -14 6 0 10 -6 10 -14 0 -8 4 -16 9 -18 5 -1 11 -10 13 -18 2 -8
11 -23 20 -34 10 -10 15 -23 12 -28 -3 -4 0 -8 6 -8 6 0 8 -4 5 -10 -3 -5 -2
-10 3 -10 5 0 15 -13 22 -29 9 -24 15 -27 25 -18 7 7 11 15 9 19 -2 3 2 13 10
20 12 12 48 73 51 88 1 3 5 14 9 25 4 11 13 33 18 48 25 65 11 232 -23 273 -5
6 -7 13 -4 16 3 3 -1 11 -10 18 -8 7 -15 19 -15 26 0 8 -4 14 -10 14 -5 0 -10
7 -10 15 0 8 -4 15 -10 15 -5 0 -9 3 -8 8 3 11 -87 98 -135 130 -55 37 -85 49
-138 57 -81 12 -94 12 -154 -2z"/>
<path d="M435 2728 c-72 -8 -98 -16 -175 -52 -52 -24 -59 -30 -103 -72 -45
-44 -64 -69 -72 -93 -3 -12 -11 -21 -16 -21 -5 0 -8 -3 -7 -7 1 -5 -4 -21 -11
-38 -7 -16 -15 -41 -17 -54 -3 -14 -7 -28 -9 -32 -3 -4 -8 -24 -11 -45 -6 -37
-5 -38 12 -22 53 47 184 70 206 36 4 -7 8 -9 8 -5 0 4 22 -14 49 -41 l49 -49
22 29 c11 16 25 26 30 23 4 -3 10 1 12 7 7 19 176 18 187 0 5 -8 11 -13 15
-13 19 3 29 -3 76 -49 45 -43 54 -48 71 -37 10 6 19 14 19 18 0 3 21 16 48 30
71 36 162 33 222 -6 25 -17 53 -39 62 -50 21 -24 23 -11 7 55 -6 25 -12 54
-15 65 -9 49 -73 185 -94 202 -8 7 -12 13 -7 13 15 0 -108 112 -152 138 -27
16 -119 52 -146 58 -82 18 -169 22 -260 12z"/>
<path d="M1889 266 c-2 -2 -44 -7 -93 -10 -49 -4 -92 -8 -95 -10 -3 -2 -31 -7
-61 -10 -105 -13 -224 -51 -242 -79 -3 -6 -4 -16 -1 -23 5 -14 80 -48 133 -60
19 -4 37 -8 40 -9 3 -1 30 -5 60 -9 30 -5 63 -10 74 -12 103 -19 559 -27 716
-12 135 13 257 33 310 50 19 7 37 12 40 13 13 1 70 40 70 48 0 24 -93 68 -170
81 -19 3 -44 7 -55 10 -11 2 -49 7 -85 11 -36 4 -74 9 -85 12 -23 6 -550 14
-556 9z"/>
</g>
</svg>
