<?xml version="1.0" standalone="no"?>
<!DOCTYPE svg PUBLIC "-//W3C//DTD SVG 20010904//EN"
 "http://www.w3.org/TR/2001/REC-SVG-20010904/DTD/svg10.dtd">
<svg version="1.0" xmlns="http://www.w3.org/2000/svg"
 width="472.000000pt" height="472.000000pt" viewBox="0 0 472.000000 472.000000"
 preserveAspectRatio="xMidYMid meet">
<metadata>
Created by potrace 1.11, written by Peter Selinger 2001-2013
</metadata>
<g transform="translate(0.000000,472.000000) scale(0.100000,-0.100000)"
fill="#000000" stroke="none">
<path d="M3070 3928 c-22 -23 -38 -43 -35 -46 2 -3 -1 -14 -7 -25 -6 -12 -12
-43 -12 -70 l-2 -49 -79 -3 c-44 -2 -92 -6 -107 -9 -16 -3 -38 -8 -50 -10 -13
-3 -37 -8 -54 -11 -27 -6 -33 -3 -55 29 -13 20 -27 36 -31 36 -5 0 -8 5 -8 10
0 12 -60 73 -60 62 0 -4 -7 1 -14 10 -17 23 -88 48 -137 48 -53 0 -89 -16
-121 -52 -34 -40 -45 -83 -47 -190 -1 -47 -4 -101 -6 -119 -3 -19 -7 -56 -11
-84 -3 -27 -8 -53 -11 -58 -2 -4 -6 -20 -9 -35 -3 -15 -7 -34 -11 -42 -3 -8
-7 -17 -8 -20 -15 -60 -83 -210 -100 -222 -5 -4 -6 -8 -2 -8 5 0 -1 -13 -12
-29 -12 -16 -21 -32 -21 -35 0 -10 -64 -111 -72 -114 -4 -2 -8 -8 -8 -14 0 -5
-6 -16 -12 -23 -30 -34 -38 -45 -32 -45 4 0 -14 -20 -38 -45 -25 -25 -48 -45
-52 -45 -4 0 -16 -9 -28 -20 -12 -10 -24 -17 -28 -15 -4 2 -16 -4 -26 -13 -20
-19 -54 -36 -66 -34 -5 1 -8 -2 -8 -7 0 -9 -45 -31 -71 -34 -8 -2 -18 -5 -24
-8 -9 -6 -73 -21 -100 -24 -5 -1 -35 -7 -65 -13 -30 -6 -68 -14 -85 -17 -16
-3 -40 -7 -52 -9 -11 -3 -43 -7 -70 -11 -82 -11 -193 -49 -193 -66 0 -4 -8
-10 -17 -13 -34 -11 -46 -65 -30 -132 13 -55 69 -116 129 -142 21 -9 38 -20
38 -24 0 -3 13 -9 30 -13 16 -4 30 -11 30 -16 0 -5 3 -8 8 -7 8 1 39 -9 64
-22 9 -5 31 -12 48 -15 17 -3 48 -13 70 -21 35 -14 40 -20 40 -48 0 -20 -9
-39 -26 -55 -56 -53 -79 -144 -71 -277 3 -52 9 -99 12 -104 4 -6 9 -23 11 -37
6 -29 45 -114 65 -137 76 -91 112 -114 169 -112 26 1 60 12 80 24 19 12 41 25
49 29 17 8 68 60 88 90 8 11 22 20 31 18 9 -2 17 -4 17 -5 0 -1 7 -3 15 -5 8
-2 39 -11 68 -19 55 -15 148 -14 220 2 38 9 45 8 62 -11 11 -11 20 -24 20 -29
0 -16 112 -135 150 -159 79 -50 231 -74 305 -48 60 22 96 121 90 247 l-5 87
53 19 c81 29 127 50 127 59 0 4 5 5 10 2 6 -3 10 -1 10 4 0 6 6 11 13 11 7 0
25 11 40 25 15 14 27 23 27 20 0 -10 81 78 98 107 9 15 20 28 25 28 4 0 6 4 2
9 -3 5 -1 13 5 16 12 7 42 -13 36 -24 -6 -10 52 -54 88 -67 41 -14 91 0 134
37 18 16 29 29 25 29 -4 0 7 9 25 20 50 31 66 78 59 180 -4 47 -9 96 -11 110
-5 24 -9 41 -22 100 -3 14 -7 36 -10 50 -3 14 -10 43 -16 65 -6 22 -12 49 -13
60 -1 11 -4 20 -5 20 -1 0 -4 12 -5 27 -4 25 -1 27 53 38 31 6 65 15 74 20 10
6 25 10 33 10 21 0 102 38 152 72 58 39 100 83 120 126 9 20 20 39 23 42 19
15 38 104 34 162 -4 67 -4 68 -23 138 -50 186 -95 300 -146 366 -14 19 -23 34
-19 34 4 0 -1 7 -12 15 -10 8 -15 15 -10 15 5 0 0 8 -11 18 -10 9 -26 26 -34
38 -47 70 -253 286 -263 277 -2 -3 -11 4 -18 16 -7 12 -18 21 -25 21 -7 0 -16
8 -22 18 -5 9 -11 15 -13 13 -2 -3 -28 11 -58 30 -30 19 -90 49 -132 66 l-78
32 -40 -41z"/>
<path d="M1588 3785 c-1 -1 -25 -6 -52 -9 -27 -4 -56 -11 -65 -16 -9 -4 -18
-8 -21 -8 -3 0 -22 -7 -44 -16 -21 -9 -42 -16 -47 -16 -5 0 -9 -4 -9 -10 0 -5
-9 -10 -20 -10 -11 0 -20 -4 -20 -9 0 -5 -11 -12 -24 -15 -13 -3 -26 -13 -30
-21 -5 -14 7 -17 59 -15 3 0 20 -7 38 -16 32 -16 104 -84 89 -84 -4 0 1 -5 11
-11 9 -5 17 -16 17 -23 0 -17 35 -57 44 -49 3 3 6 1 6 -5 0 -7 3 -11 8 -10 13
4 102 -42 102 -53 0 -6 4 -8 8 -5 5 3 14 -4 22 -14 8 -10 17 -17 20 -15 6 4
36 -28 105 -110 14 -16 25 -36 25 -42 0 -7 5 -13 10 -13 6 0 10 -5 10 -11 0
-6 13 -30 30 -53 16 -24 26 -46 23 -50 -4 -3 -1 -6 6 -6 7 0 9 -4 6 -10 -3 -5
-1 -10 4 -10 6 0 11 -6 11 -14 0 -21 23 -36 40 -26 8 6 11 10 7 10 -4 0 5 19
21 43 15 23 33 56 39 72 6 17 14 39 19 50 21 58 25 160 8 220 -8 28 -15 56
-16 63 -1 6 -5 12 -10 12 -5 0 -7 4 -4 9 3 5 -1 14 -9 21 -8 7 -13 16 -10 20
3 4 -2 11 -11 14 -9 4 -14 9 -11 12 3 3 -4 17 -16 31 -38 45 -117 122 -117
115 0 -4 -6 0 -13 8 -18 23 -102 60 -150 66 -23 3 -52 7 -64 9 -12 2 -23 2
-25 0z"/>
<path d="M1167 3405 c-1 -2 -29 -5 -62 -8 -33 -3 -77 -13 -97 -22 -21 -8 -38
-12 -38 -9 0 4 -8 0 -18 -9 -10 -10 -22 -14 -25 -10 -4 3 -7 1 -7 -5 0 -7 -4
-12 -10 -12 -9 0 -26 -12 -74 -55 -31 -27 -80 -94 -82 -113 -2 -8 -8 -18 -14
-22 -7 -4 -11 -10 -11 -14 1 -3 -5 -30 -13 -59 -28 -98 -29 -108 -15 -105 8 2
16 5 19 8 12 12 70 40 70 34 0 -3 6 -2 13 4 16 13 99 5 109 -11 4 -6 8 -8 8
-3 0 5 21 -13 48 -40 l47 -50 23 28 c13 15 26 27 30 26 4 -1 20 4 36 11 55 22
167 5 212 -32 8 -7 34 -30 57 -52 l42 -40 31 30 c45 43 110 64 180 59 32 -2
61 -9 65 -15 3 -6 9 -10 13 -9 10 2 65 -33 62 -39 -2 -3 6 -14 17 -25 19 -18
19 -17 12 25 -9 54 -29 134 -44 174 -21 55 -64 135 -73 135 -4 0 -8 5 -8 10 0
14 -108 119 -115 112 -3 -3 -5 0 -5 6 0 7 -6 12 -14 12 -7 0 -19 7 -26 15 -7
9 -15 13 -18 10 -3 -3 -11 0 -18 5 -6 6 -20 13 -30 15 -11 2 -35 9 -54 15 -48
15 -212 33 -223 25z"/>
<path d="M2510 930 c-76 -8 -170 -19 -199 -25 -9 -1 -36 -6 -61 -11 -56 -10
-50 -9 -80 -18 -80 -25 -107 -50 -86 -78 11 -15 117 -57 161 -64 77 -11 105
-15 145 -20 25 -3 56 -7 70 -10 43 -10 542 -12 620 -4 119 13 193 22 215 26
11 2 34 7 50 9 50 9 146 45 162 60 10 10 11 20 4 33 -10 18 -104 55 -176 68
-22 4 -45 8 -51 9 -6 2 -37 6 -70 10 -32 4 -70 9 -84 11 -46 9 -544 11 -620 4z"/>
</g>
</svg>
